<svg width="170" height="184" viewBox="0 0 170 184" fill="none" xmlns="http://www.w3.org/2000/svg">
<path d="M84.6502 124.423C61.6353 124.423 40.9658 120.389 26.1808 114.005C18.7825 110.811 13.0176 107.098 9.15242 103.152C5.30264 99.2225 3.5 95.2474 3.5 91.3755C3.5 87.5037 5.30264 83.5285 9.15242 79.5988C13.0176 75.6533 18.7825 71.9398 26.1808 68.7456C40.9658 62.3622 61.6353 58.3277 84.6502 58.3277C107.665 58.3277 128.335 62.3622 143.12 68.7456C150.518 71.9398 156.283 75.6533 160.148 79.5988C163.998 83.5285 165.8 87.5037 165.8 91.3755C165.8 95.2474 163.998 99.2225 160.148 103.152C156.283 107.098 150.518 110.811 143.12 114.005C128.335 120.389 107.665 124.423 84.6502 124.423Z" stroke="#20232A" stroke-width="7"/>
<path d="M113.625 108.107C102.117 128.039 88.2887 143.922 75.3681 153.534C68.9026 158.344 62.8042 161.48 57.4548 162.855C52.1266 164.224 47.7827 163.797 44.4296 161.861C41.0765 159.925 38.5352 156.377 37.0568 151.078C35.5725 145.758 35.239 138.908 36.1719 130.904C38.0362 114.908 44.877 94.9907 56.3844 75.0592C67.8919 55.1277 81.7206 39.2446 94.6413 29.6322C101.107 24.8222 107.205 21.6864 112.555 20.3118C117.883 18.9426 122.227 19.3691 125.58 21.305C128.933 23.2409 131.474 26.7897 132.953 32.0885C134.437 37.4086 134.77 44.2579 133.837 52.2621C131.973 68.258 125.132 88.1756 113.625 108.107Z" stroke="#20232A" stroke-width="7"/>
<path d="M113.625 75.0592C125.132 94.9907 131.973 114.908 133.837 130.904C134.77 138.908 134.437 145.758 132.953 151.078C131.474 156.377 128.933 159.925 125.58 161.861C122.227 163.797 117.883 164.224 112.555 162.855C107.205 161.48 101.107 158.344 94.6413 153.534C81.7206 143.922 67.8919 128.039 56.3844 108.107C44.877 88.1756 38.0362 68.258 36.1719 52.2621C35.239 44.2579 35.5725 37.4086 37.0568 32.0885C38.5352 26.7897 41.0765 23.2409 44.4296 21.305C47.7827 19.3691 52.1266 18.9427 57.4548 20.3118C62.8042 21.6864 68.9026 24.8222 75.3681 29.6322C88.2887 39.2447 102.117 55.1277 113.625 75.0592Z" stroke="#20232A" stroke-width="7"/>
<path d="M97.6667 75.8277H76.3333C74.9189 75.8277 73.5623 76.3896 72.5621 77.3898C71.5619 78.39 71 79.7465 71 81.161V102.494C71 103.909 71.5619 105.265 72.5621 106.266C73.5623 107.266 74.9189 107.828 76.3333 107.828H97.6667C98.1382 107.828 98.5904 107.64 98.9238 107.307C99.2572 106.974 99.4445 106.521 99.4445 106.05V77.6055C99.4445 77.134 99.2572 76.6818 98.9238 76.3484C98.5904 76.015 98.1382 75.8277 97.6667 75.8277ZM76.3333 104.272C75.8618 104.272 75.4097 104.085 75.0763 103.751C74.7429 103.418 74.5556 102.966 74.5556 102.494C74.5556 102.023 74.7429 101.571 75.0763 101.237C75.4097 100.904 75.8618 100.717 76.3333 100.717H95.8889V104.272H76.3333Z" fill="#20232A"/>
</svg>
